<svg xmlns="http://www.w3.org/2000/svg" width="299" height="32" viewBox="0 0 299 32">
    <g fill="none">
        <path fill="#FFDA27" d="M279.957 0v20.645c0 2.348 1.947 4.355 5.154 4.355 3.268 0 5.215-2.007 5.215-4.355V0H299v20.877C299 28.107 293.532 32 285.11 32c-8.484 0-13.891-3.893-13.891-11.123V0h8.738zm-10.74 0V7h-14.455v5.499h13.262v6.999h-13.262v5.499h14.392v6.998h-23.13V0h23.193zm-27.451 26.533c1.452 0 2.745 1.218 2.766 2.71-.02 1.533-1.314 2.75-2.766 2.75-1.53 0-2.785-1.217-2.766-2.75-.02-1.492 1.235-2.71 2.766-2.71z"/>
        <path fill="#FFF" d="M40.503 7.01l.003 15.377c0 1.833 1.627 3.487 4.304 3.487 2.73 0 4.356-1.654 4.356-3.487V7.01h7.244v16.31c0 5.644-4.568 8.68-11.6 8.68-7.087 0-11.6-3.036-11.6-8.68l-.004-16.31h7.297zm81.153 0c6.215 0 9.509 2.44 9.509 6.248 0 2.757-2.112 4.892-5.259 5.465v.245c3.492.121 6.32 2.428 6.32 5.954 0 4.112-3.651 7.077-9.56 7.077h-12.803V7.009h11.793zm62.288 0v3.758L171.09 26.533h12.802v5.466h-22.205V28.24l12.855-15.764H161.74V7.009h22.205zm43.055 0c6.04 0 10.09 3.171 10.09 8.49 0 3.464-1.726 5.89-4.62 7.17L238 31.999l-8.015.002-4.79-8.256h-2.55v8.255h-7.382V7.009H227zm-75.979 0L160.002 32h-7.972l-1.566-4.79h-8.974L139.923 32h-7.965l8.974-24.988h10.088zm53.623 0L213.625 32h-7.972l-1.567-4.79h-8.974L193.545 32h-7.965l8.975-24.988h10.088zM22.58 0l10.63 31.998h-9.435l-1.855-6.124H11.29l-1.855 6.124H0L10.63.001h11.95zM81.96 7.012v5.403h-8.084v19.583h-7.19V12.414H58.6V7.01H81.96zm13.138.009c7.184 0 12.87 4.368 12.87 12.488s-5.686 12.488-12.87 12.488c-7.235 0-12.868-4.416-12.868-12.488 0-8.12 5.633-12.488 12.868-12.488zm25.71 14.29h-3.56v5.271h3.453c2.482 0 3.718-.866 3.718-2.537 0-1.758-1.367-2.734-3.612-2.734zm-25.71-8.545c-3.566 0-5.478 2.374-5.478 6.743 0 4.368 1.912 6.743 5.478 6.743 3.567 0 5.479-2.375 5.479-6.743 0-4.37-1.912-6.743-5.48-6.743zm50.986 1.125h-.213l-2.708 8.245h5.63l-2.709-8.245zm53.622 0h-.212l-2.709 8.245h5.63l-2.709-8.245zM16.731 8.813h-.252L13.27 19.374h6.668L16.73 8.813zm208.516 3.613h-2.602v6.05h2.602c2.589 0 4.142-.842 4.142-2.977 0-2.146-1.553-3.073-4.142-3.073zM120.38 12.33h-3.133v4.783h3.028c1.939 0 3.293-.854 3.293-2.391 0-1.538-1.354-2.392-3.188-2.392z"/>
    </g>
</svg>
