<?xml version="1.0" encoding="UTF-8"?><svg id="Layer_1" xmlns="http://www.w3.org/2000/svg" viewBox="0 0 704 396"><defs><style>.cls-1{fill:#fff;}.cls-2{fill:#ff8000;}</style></defs><path d="m689.53,192.44c-12.64-15.42-32.93-23.24-60.32-23.24h-101.26c-10.61,0-18.42-10.06-15.62-20.28,2.62-9.58,5.26-22.27,6.79-29.74,7.35-35.79,14.17-69.62-6.6-95.02-13.09-16-29.69-22.04-61.93-22.08-52.8-.07-313.1-.17-349.88,0-12.96.06-24.67,9.03-29.79,20.92L4.64,176.97c-7.12,16.55.31,37.18,20.74,44.29,1.73.6,3.56.91,5.39.91h77.81c15.86,0,27.39,14.95,23.47,30.29-2.07,8.12-3.65,15.91-5.06,22.87-6.41,31.38-14.4,70.43,7.27,96.94,8.1,9.91,23.58,21.73,51.34,21.73h409.13c53.51,0,85.81-25.58,95.96-75.88,3.75-18.15,7.8-49.91,9.32-62.91,2.05-17.45,6.15-42.47-10.49-62.77Z"/><g><path class="cls-1" d="m113.49,166.26h-27.66l-8.88,23.51h-42.53L100.7,35.81h51.82l3.3,153.96h-42.53l.2-23.51Zm6.4-96.81h-.41l-22.5,63.18h18.79l4.13-63.18Z"/><path class="cls-1" d="m248.91,35.81h41.29l-20.85,101.78c-7.43,36.87-25.39,55.2-61.93,55.2-40.25,0-47.27-17.04-39.64-55.2l20.85-101.78h41.29l-22.5,109.97c-2.68,13.16-2.06,18.54,5.78,18.54s10.53-5.39,13.21-18.54l22.5-109.97Z"/><path class="cls-1" d="m295.97,35.81h97.44l-7.43,36.22h-28.08l-23.95,117.74h-41.29l23.95-117.74h-28.07l7.43-36.22Z"/><path class="cls-1" d="m450.58,32.79c53.05,0,46.45,32.34,36.75,80-10.12,49.16-16.31,80-69.36,80s-46.86-30.84-36.75-80c9.7-47.65,16.31-80,69.36-80Zm-5.78,28.46c-8.88,0-11.98,6.47-21.06,51.54-9.29,45.07-8.88,51.53,0,51.53s11.77-6.47,21.06-51.53c9.08-45.07,8.87-51.54,0-51.54Z"/><path class="cls-2" d="m213.27,274.7h50.58l-17.13,83.88h-28.7l1.45-12.51h-.42c-9.7,13.59-21.47,15.53-33.44,15.53-41.91,0-35.3-38.39-26.84-79.79,8.88-43.99,18.58-80.21,68.95-80.21,40.87,0,45.42,21.35,39.02,52.18h-38.81l1.24-6.25c2.48-11.43,1.24-17.46-6.81-17.46-9.91,0-12.59,9.71-14.45,18.97l-13,63.4c-1.86,9.49-3.31,20.7,6.61,20.7s13.21-7.98,15.48-19.41l2.27-10.57h-11.77l5.78-28.46Z"/><path class="cls-2" d="m289.64,204.62h41.29l-31.38,153.96h-41.29l31.38-153.96Z"/><path class="cls-2" d="m344.97,204.62h59.45c18.37,0,28.69,7.55,32.82,20.05,3.92,12.08,3.72,20.27-3.72,56.93-6.81,33.64-16.93,76.98-59.87,76.98h-60.07l31.38-153.96Zm16.31,122.91h8.46c10.32,0,14.24-11.86,16.72-23.5l9.08-44.85c3.1-15.52,3.1-23.51-9.7-23.51h-5.99l-18.58,91.86Z"/><path class="cls-2" d="m501.64,335.08h-27.66l-8.88,23.51h-42.53l66.27-153.96h51.82l3.31,153.96h-42.53l.2-23.51Zm6.4-96.81h-.42l-22.5,63.18h18.79l4.13-63.18Z"/><path class="cls-2" d="m630.65,242.57c1.45-6.47,0-12.51-7.02-12.51-6.19,0-10.73,5.39-11.97,11.65-6.19,30.62,58.63,14.87,47.27,69.86-7.22,35.8-26.01,50.03-64.2,50.03-31.58,0-46.65-11.22-39.84-45.07l.83-4.09h40.05l-1.45,7.12c-1.45,7.55.41,13.58,7.64,13.58,7.64,0,11.56-6.9,12.8-13.58,2.07-9.92-1.03-12.08-5.57-15.31-4.96-3.23-11.77-6.25-18.38-10.14-20.02-11.64-25.8-20.05-21.06-42.91,4.34-21.35,12.8-32.99,23.74-40.11,8.05-5.17,19.61-9.49,35.71-9.49,41.7,0,44.18,21.56,39.02,47.22h-38.81l1.24-6.25Z"/></g></svg>