<?xml version="1.0" encoding="UTF-8"?> <svg xmlns="http://www.w3.org/2000/svg" width="600" height="127" viewBox="0 0 600 127" fill="none"><g clip-path="url(#clip0_78_442)"><mask id="mask0_78_442" style="mask-type:luminance" maskUnits="userSpaceOnUse" x="-429" y="-546" width="1458" height="820"><path d="M-428.703 273.828H1028.45V-545.819H-428.703V273.828Z" fill="white"></path></mask><g mask="url(#mask0_78_442)"><path d="M566.352 13.6796C546.975 13.6796 532.695 28.2648 532.695 47.1402C532.695 66.0156 547.281 80.6925 566.652 80.6925C577.534 80.6925 587.621 76.4015 594.61 67.5091L581.525 58.1204C578.03 62.6186 572.938 65.312 567.148 65.312C558.561 65.312 551.767 60.0117 549.57 52.2265H599.598C599.893 50.4271 599.991 48.9335 599.991 47.1341H600.002C600.002 27.855 585.724 13.6735 566.346 13.6735L566.352 13.6796ZM550.066 40.0525C552.465 32.9648 558.756 28.472 566.646 28.472C574.535 28.472 581.023 32.8609 583.422 40.0525H550.066ZM507.522 2.7973V20.1677C503.231 16.0786 496.934 13.6796 489.644 13.6796C471.271 13.6796 457.09 27.7624 457.09 47.1402C457.09 66.5172 471.271 80.6925 489.644 80.6925C497.73 80.6925 504.021 77.7919 508.416 73.2011V79.3948H524.494V2.7973H507.522ZM491.438 64.7178C481.75 64.7178 474.16 57.1285 474.16 46.8404C474.16 36.5516 481.455 29.158 491.438 29.158C501.421 29.158 508.912 36.4536 508.912 46.8404C508.912 57.2264 501.427 64.7178 491.438 64.7178ZM441.611 80.6925C440.192 80.698 438.787 80.4226 437.475 79.8822C436.164 79.3418 434.972 78.5472 433.969 77.5441C432.966 76.541 432.171 75.3493 431.631 74.0377C431.091 72.7261 430.815 71.3206 430.821 69.9021C430.821 63.905 435.614 59.2163 441.611 59.2163C447.609 59.2163 452.297 64.0082 452.297 69.9021C452.297 75.7959 447.597 80.6925 441.611 80.6925ZM427.932 47.1402C427.932 27.861 413.555 13.6796 394.183 13.6796C374.812 13.6796 360.526 28.2648 360.526 47.1402C360.526 66.0156 375.112 80.6925 394.483 80.6925C405.366 80.6925 415.452 76.4015 422.442 67.5091L409.356 58.1204C405.861 62.6186 400.769 65.312 394.979 65.312C386.392 65.312 379.598 60.0117 377.401 52.2265H427.43C427.73 50.4271 427.926 48.9335 427.926 47.1341L427.932 47.1402ZM377.891 40.0525C380.291 32.9648 386.582 28.472 394.471 28.472C402.36 28.472 408.848 32.8609 411.247 40.0525H377.891ZM335.348 2.7973V79.3948H352.32V2.7973H335.348ZM315.377 19.0779C309.887 19.0779 305.688 14.7869 305.688 9.58518C305.688 4.38346 309.887 -0.000124912 315.377 -0.000124912C320.867 -0.000124912 325.065 4.29087 325.065 9.58518C325.065 14.8795 320.774 19.0779 315.377 19.0779ZM323.872 79.3948H306.796V24.2735H323.872V79.3948ZM265.942 13.6796C258.548 13.6857 252.458 16.0786 247.966 20.173V2.79122H231.086V79.2855H247.061V73.1951C251.455 77.7919 257.851 80.6865 265.936 80.6865C284.304 80.6865 298.387 66.3093 298.387 47.1341C298.387 27.9589 284.31 13.6735 265.936 13.6735L265.942 13.6796ZM264.05 64.7178C254.258 64.7178 246.668 57.1285 246.668 46.8404C246.668 36.5516 254.165 29.158 264.05 29.158C273.935 29.158 281.328 36.4536 281.328 46.8404C281.328 57.2264 273.935 64.7178 264.05 64.7178ZM189.148 13.6796C169.869 13.6796 155.192 27.7624 155.192 47.1402C155.192 66.5172 169.88 80.6925 189.148 80.6925C208.416 80.6925 222.896 66.3153 222.896 47.1402C222.896 27.9642 208.427 13.6796 189.148 13.6796ZM189.148 64.9136C179.252 64.9136 171.968 57.6241 171.968 47.1402C171.968 36.6555 179.563 29.262 189.148 29.262C198.733 29.262 206.224 36.7534 206.224 47.1402C206.224 57.5262 198.831 64.9136 189.148 64.9136ZM147.302 27.3594C147.302 19.9712 142.81 13.8754 134.713 13.8754C128.623 13.8754 123.923 17.2724 121.432 23.5639L107.556 57.8145V27.3594C107.556 19.9712 103.265 13.8754 95.2722 13.8754C88.6809 13.8754 84.5864 17.6701 82.1867 23.5639L68.0061 58.4141V14.9774H53.1211V79.3895H73.3922L93.0697 32.9474V67.9015C93.0697 75.191 97.0602 80.4907 104.356 80.4907C110.647 80.4907 114.044 76.8918 116.339 71.4078L132.418 32.659V79.3948H147.302V27.3594Z" fill="#350051"></path></g><mask id="mask1_78_442" style="mask-type:luminance" maskUnits="userSpaceOnUse" x="-429" y="-546" width="1458" height="820"><path d="M-428.703 273.828H1028.45V-545.818H-428.703V273.828Z" fill="white"></path></mask><g mask="url(#mask1_78_442)"><path d="M14.0827 14.9825H41.6494V79.3945H14.0827C6.29762 79.3945 0 73.1022 0 65.311V29.0538C0 21.2687 6.29154 14.9711 14.0827 14.9711V14.9825Z" fill="#FA3C00"></path></g><mask id="mask2_78_442" style="mask-type:luminance" maskUnits="userSpaceOnUse" x="-429" y="-546" width="1458" height="820"><path d="M-428.703 273.828H1028.45V-545.819H-428.703V273.828Z" fill="white"></path></mask><g mask="url(#mask2_78_442)"><path d="M9.19141 101.42H13.5279C21.9248 101.42 25.8348 106.126 25.8348 112.187C25.8348 118.248 21.9308 122.954 13.5279 122.954H9.19141V101.42ZM21.7692 112.187C21.7692 107.452 18.6029 104.955 13.9552 104.955H13.0954V119.413H13.8975C18.5741 119.413 21.7753 116.951 21.7753 112.182L21.7692 112.187ZM28.5396 113.906C28.5396 108.646 32.5711 104.494 38.0149 104.494C43.4587 104.494 47.4901 108.461 47.4901 113.877C47.4901 114.275 47.4613 114.586 47.3983 115.047H32.4155C32.9058 117.816 35.2121 119.753 38.2281 119.753C40.1953 119.753 41.8558 118.923 43.0269 117.417L46.0429 119.569C44.0765 122.06 41.1811 123.323 38.1363 123.323C32.6629 123.323 28.5396 119.199 28.5396 113.911V113.906ZM43.5801 111.725C42.8128 109.326 40.7197 107.971 38.0726 107.971C35.4254 107.971 33.3953 109.419 32.6287 111.725H43.5801ZM66.0718 122.954H62.3804V121.172C61.3019 122.556 59.52 123.323 57.5194 123.323C53.4591 123.323 50.6906 120.584 50.6906 116.368V104.863H54.5664V115.722C54.5664 118.214 56.0137 119.69 58.2571 119.69C60.6273 119.69 62.196 118.121 62.196 115.693V104.863H66.0718V122.954ZM71.2675 117.631V109.632H69.3937V106.247H71.2675V102.925L75.0508 101.846V106.247H77.6979V109.632H75.0508V117.568C75.0508 119.35 75.818 119.569 77.6053 119.569H77.8535V122.954H77.0232C73.6376 122.954 71.2736 121.875 71.2736 117.631H71.2675ZM80.3162 117.539H84.0995C84.2551 119.199 85.3912 120.186 86.8673 120.186C88.3434 120.186 89.3301 119.292 89.3301 118.092C89.3301 116.523 88.159 116.092 85.3912 115.353C82.6226 114.586 80.5006 112.954 80.5006 109.817C80.5006 106.679 82.9634 104.494 86.6252 104.494C90.2871 104.494 92.5942 106.587 92.8712 110.001H89.088C88.9954 108.496 87.9518 107.602 86.6252 107.602C85.2121 107.602 84.2892 108.496 84.2892 109.569C84.2892 110.953 85.1833 111.414 88.0095 112.216C90.835 113.017 93.0845 114.736 93.0845 117.781C93.0845 121.195 90.5929 123.317 86.8385 123.317C83.084 123.317 80.5356 121.167 80.3162 117.533V117.539ZM95.633 113.906C95.633 108.49 99.7859 104.494 105.137 104.494C109.319 104.494 112.675 106.864 113.995 110.434L110.582 111.725C109.779 109.482 107.721 108.064 105.259 108.064C102.029 108.064 99.5665 110.526 99.5665 113.877C99.5665 117.227 101.994 119.661 105.259 119.661C107.842 119.661 109.936 118.092 110.553 115.693L114.122 116.772C113.044 120.676 109.572 123.323 105.137 123.323C99.7859 123.323 95.633 119.355 95.633 113.911V113.906ZM117.202 101.42H121.078V106.373C122.156 105.146 123.817 104.5 125.691 104.5C129.722 104.5 132.582 107.239 132.582 111.455V122.96H128.707V112.1C128.707 109.609 127.26 108.133 125.017 108.133C122.646 108.133 121.078 109.701 121.078 112.129V122.96H117.202V101.426V101.42ZM136.891 101.42H140.766V122.954H136.891V101.42ZM144.272 113.906C144.272 108.49 148.304 104.494 153.471 104.494C155.899 104.494 158.021 105.445 159.411 107.17V104.863H163.102V122.954H159.411V120.619C158.148 122.279 156.026 123.323 153.471 123.323C148.304 123.323 144.272 119.355 144.272 113.911V113.906ZM159.497 113.848C159.497 110.497 157.069 108.035 153.834 108.035C150.599 108.035 148.206 110.497 148.206 113.848C148.206 117.199 150.634 119.69 153.834 119.69C157.035 119.69 159.497 117.228 159.497 113.848ZM167.56 104.863H171.251V106.645C172.329 105.261 174.111 104.494 176.112 104.494C180.172 104.494 182.941 107.233 182.941 111.448V122.954H179.065V112.095C179.065 109.603 177.617 108.127 175.374 108.127C173.004 108.127 171.435 109.695 171.435 112.124V122.954H167.56V104.863ZM186.262 113.906C186.262 108.49 190.23 104.494 195.397 104.494C197.825 104.494 199.826 105.48 201.118 107.049L201.181 107.112V101.42H205.057V122.954H201.395V120.399L201.239 120.584C199.976 122.274 197.981 123.323 195.397 123.323C190.23 123.323 186.262 119.355 186.262 113.911V113.906ZM201.493 113.848C201.493 110.463 199.065 108.006 195.829 108.006C192.594 108.006 190.201 110.469 190.201 113.848C190.201 117.228 192.629 119.661 195.829 119.661C199.031 119.661 201.493 117.233 201.493 113.848ZM208.569 117.539H212.352C212.508 119.199 213.644 120.186 215.12 120.186C216.597 120.186 217.583 119.292 217.583 118.092C217.583 116.523 216.412 116.092 213.644 115.353C210.876 114.586 208.753 112.954 208.753 109.817C208.753 106.679 211.216 104.494 214.878 104.494C218.54 104.494 220.847 106.587 221.124 110.001H217.341C217.248 108.496 216.204 107.602 214.878 107.602C213.466 107.602 212.543 108.496 212.543 109.569C212.543 110.953 213.437 111.414 216.262 112.216C219.088 113.017 221.337 114.736 221.337 117.781C221.337 121.195 218.846 123.317 215.091 123.317C211.337 123.317 208.788 121.167 208.569 117.533V117.539ZM232.254 120.797H236.285C236.718 122.487 238.194 123.594 240.317 123.594C242.744 123.594 244.22 122.055 244.22 119.782V117.937C244.019 118.166 243.792 118.373 243.546 118.554C242.439 119.384 241.268 119.938 239.486 119.938C235.242 119.938 231.764 116.495 231.764 112.216C231.764 107.937 235.178 104.465 239.422 104.465C241.147 104.465 242.438 104.99 243.512 105.849C243.817 106.062 244.094 106.339 244.342 106.616V104.863H248.004V119.384C248.004 124.061 244.774 126.645 240.282 126.645C235.789 126.645 232.929 124.09 232.254 120.803V120.797ZM244.561 112.279C244.561 109.817 242.623 107.815 240.068 107.815C237.514 107.815 235.605 109.782 235.605 112.279C235.605 114.776 237.571 116.709 240.068 116.709C242.565 116.709 244.561 114.799 244.561 112.279ZM252.439 104.863H256.066V107.567C257.173 105.693 259.083 104.678 261.666 104.678H261.822V108.461H261.608C258.932 108.461 256.256 109.448 256.256 114.615V122.954H252.444V104.863H252.439ZM262.894 113.906C262.894 108.49 266.983 104.494 272.398 104.494C277.814 104.494 281.937 108.49 281.937 113.906C281.937 119.321 277.814 123.317 272.398 123.317C266.983 123.317 262.894 119.35 262.894 113.906ZM278.062 113.906C278.062 110.463 275.633 108.064 272.398 108.064C269.163 108.064 266.741 110.491 266.741 113.906C266.741 117.32 269.169 119.719 272.398 119.719C275.628 119.719 278.062 117.291 278.062 113.906ZM267.018 100.434C267.018 99.3268 267.941 98.3751 269.169 98.3751C270.398 98.3751 271.262 99.3268 271.262 100.434C271.264 100.71 271.212 100.983 271.108 101.238C271.003 101.493 270.849 101.725 270.654 101.92C270.459 102.114 270.228 102.268 269.973 102.373C269.718 102.477 269.444 102.53 269.169 102.527C267.941 102.527 267.018 101.604 267.018 100.434ZM273.511 100.434C273.511 99.3268 274.497 98.3751 275.662 98.3751C276.827 98.3751 277.785 99.3268 277.785 100.434C277.785 101.604 276.833 102.527 275.662 102.527C274.492 102.527 273.511 101.604 273.511 100.434ZM293.69 101.051C298.09 101.051 300.824 103.848 300.824 107.02C300.824 109.021 299.93 110.405 298.731 111.448C300.639 112.342 301.868 114.188 301.868 116.432C301.868 119.938 299.377 122.954 294.579 122.954H291.654L292.733 119.476H294.515C296.637 119.476 298.021 118.305 298.021 116.432C298.021 114.863 296.758 113.663 294.976 113.663H294.792C293.656 113.663 292.946 112.896 292.946 111.91C292.946 110.831 293.776 110.157 294.792 110.094C296.055 110.03 297.191 109.049 297.191 107.296C297.191 105.636 295.744 104.373 293.656 104.373C290.767 104.373 289.284 106.373 289.284 109.419V122.954H285.38V109.419C285.38 104.649 287.935 101.051 293.685 101.051H293.69ZM305.968 117.631V109.632H304.094V106.247H305.968V102.925L309.751 101.846V106.247H312.398V109.632H309.751V117.568C309.751 119.35 310.518 119.569 312.307 119.569H312.554V122.954H311.724C308.339 122.954 305.974 121.875 305.974 117.631H305.968ZM314.579 113.906C314.579 108.646 318.609 104.494 324.053 104.494C329.498 104.494 333.529 108.461 333.529 113.877C333.529 114.275 333.5 114.586 333.437 115.047H318.454C318.944 117.816 321.251 119.753 324.267 119.753C326.234 119.753 327.894 118.923 329.065 117.417L332.081 119.569C330.115 122.06 327.22 123.323 324.175 123.323C318.702 123.323 314.579 119.199 314.579 113.911V113.906ZM329.625 111.725C328.857 109.326 326.764 107.971 324.117 107.971C321.47 107.971 319.44 109.419 318.673 111.725H329.625ZM336.885 104.863H340.513V107.567C341.62 105.693 343.529 104.678 346.112 104.678H346.268V108.461H346.055C343.379 108.461 340.703 109.448 340.703 114.615V122.954H336.891V104.863H336.885ZM356.539 101.42H366.966V104.955H360.443V110.094H366.505V113.629H360.443V122.949H356.539V101.414V101.42ZM369.399 113.906C369.399 108.49 373.431 104.494 378.598 104.494C381.026 104.494 383.148 105.445 384.538 107.17V104.863H388.229V122.954H384.538V120.619C383.275 122.279 381.153 123.323 378.598 123.323C373.431 123.323 369.399 119.355 369.399 113.911V113.906ZM384.63 113.848C384.63 110.497 382.203 108.035 378.967 108.035C375.732 108.035 373.338 110.497 373.338 113.848C373.338 117.199 375.767 119.69 378.967 119.69C382.168 119.69 384.63 117.228 384.63 113.848ZM392.687 101.42H396.562V106.373C397.641 105.146 399.302 104.5 401.176 104.5C405.207 104.5 408.068 107.239 408.068 111.455V122.96H404.192V112.1C404.192 109.609 402.745 108.133 400.501 108.133C398.131 108.133 396.562 109.701 396.562 112.129V122.96H392.687V101.426V101.42ZM412.375 104.863H416.003V107.567C417.11 105.693 419.019 104.678 421.603 104.678H421.759V108.461H421.545C418.87 108.461 416.194 109.448 416.194 114.615V122.954H412.382V104.863H412.375ZM423.171 120.676C423.171 119.816 423.633 119.171 424.03 118.646L431.874 108.432H424.089V104.863H433.904C435.593 104.863 436.395 105.849 436.395 107.077C436.395 108.121 435.778 108.952 435.38 109.448L427.871 119.384H436.268V122.954H425.714C424.025 122.954 423.16 121.968 423.16 120.676H423.171ZM438.431 113.906C438.431 108.646 442.462 104.494 447.906 104.494C453.35 104.494 457.382 108.461 457.382 113.877C457.382 114.275 457.353 114.586 457.289 115.047H442.306C442.797 117.816 445.104 119.753 448.12 119.753C450.086 119.753 451.747 118.923 452.918 117.417L455.934 119.569C453.967 122.06 451.073 123.323 448.027 123.323C442.554 123.323 438.431 119.199 438.431 113.911V113.906ZM453.477 111.725C452.71 109.326 450.617 107.971 447.969 107.971C445.322 107.971 443.293 109.419 442.526 111.725H453.477ZM475.963 122.954H472.272V121.172C471.193 122.556 469.411 123.323 467.41 123.323C463.351 123.323 460.582 120.584 460.582 116.368V104.863H464.458V115.722C464.458 118.214 465.905 119.69 468.149 119.69C470.519 119.69 472.088 118.121 472.088 115.693V104.863H475.963V122.954ZM479.994 120.797H484.025C484.457 122.487 485.934 123.594 488.056 123.594C490.484 123.594 491.961 122.055 491.961 119.782V117.937C491.759 118.166 491.532 118.373 491.285 118.554C490.178 119.384 489.008 119.938 487.226 119.938C482.981 119.938 479.504 116.495 479.504 112.216C479.504 107.937 482.918 104.465 487.162 104.465C488.886 104.465 490.179 104.99 491.251 105.849C491.557 106.062 491.833 106.339 492.082 106.616V104.863H495.744V119.384C495.744 124.061 492.514 126.645 488.022 126.645C483.529 126.645 480.669 124.09 479.994 120.803V120.797ZM492.301 112.279C492.301 109.817 490.363 107.815 487.808 107.815C485.253 107.815 483.345 109.782 483.345 112.279C483.345 114.776 485.311 116.709 487.808 116.709C490.306 116.709 492.301 114.799 492.301 112.279ZM500.179 104.863H503.749V106.645C504.671 105.29 506.303 104.494 508.27 104.494C510.64 104.494 512.237 105.509 513.16 106.956C514.204 105.543 515.992 104.494 518.483 104.494C522.295 104.494 524.914 107.077 524.914 111.074V122.949H521.038V111.749C521.038 109.506 519.81 108.121 517.872 108.121C515.721 108.121 514.487 109.506 514.487 111.749V122.949H510.611V111.749C510.611 109.378 509.319 108.121 507.353 108.121C505.231 108.121 504.031 109.506 504.031 111.749V122.949H500.185V104.857L500.179 104.863ZM528.236 113.906C528.236 108.49 532.266 104.494 537.434 104.494C539.862 104.494 541.984 105.445 543.374 107.17V104.863H547.065V122.954H543.374V120.619C542.11 122.279 539.988 123.323 537.434 123.323C532.266 123.323 528.236 119.355 528.236 113.911V113.906ZM543.46 113.848C543.46 110.497 541.032 108.035 537.803 108.035C534.573 108.035 532.174 110.497 532.174 113.848C532.174 117.199 534.602 119.69 537.803 119.69C541.003 119.69 543.46 117.228 543.46 113.848ZM551.523 104.863H555.15V107.567C556.257 105.693 558.166 104.678 560.75 104.678H560.905V108.461H560.692C558.016 108.461 555.34 109.448 555.34 114.615V122.954H551.528V104.863H551.523ZM567.613 114.373V122.954H563.766V101.42H567.613V112.619L574.256 104.868H579.083L571.637 113.392L579.545 122.96H574.533L567.613 114.379V114.373ZM582.07 117.631V109.632H580.196V106.247H582.07V102.925L585.854 101.846V106.247H588.501V109.632H585.854V117.568C585.854 119.35 586.62 119.569 588.408 119.569H588.656V122.954H587.826C584.441 122.954 582.076 121.875 582.076 117.631H582.07Z" fill="#350051"></path></g></g><defs><clipPath id="clip0_78_442"><rect width="600" height="126.645" fill="white"></rect></clipPath></defs></svg> 