<?xml version="1.0" encoding="UTF-8"?> <svg xmlns="http://www.w3.org/2000/svg" width="137" height="79" viewBox="0 0 137 79" fill="none"><g clip-path="url(#clip0_77_345)"><path d="M39.49 0H125.23C131.68 0 136.91 5.23 136.91 11.68V67.31C136.91 73.76 131.68 78.99 125.23 78.99H39.49C17.7 78.98 0 61.29 0 39.49C0 17.7 17.7 0 39.49 0Z" fill="#243F92"></path><path d="M76.2984 14.16H74.1484V12.24H80.5184V14.16H78.3584V25.63H76.2984V14.16Z" fill="white"></path><path d="M83.8998 19.64V25.62H81.8398V12.24H84.6998C86.7398 12.24 87.9398 13.06 87.9398 15.47V15.98C87.9398 18.04 87.0998 18.56 86.5798 18.77C87.3598 19.14 87.8098 19.7 87.8098 21.51C87.8098 22.64 87.7898 24.81 87.9298 25.62H85.9398C85.7598 24.81 85.7999 22.61 85.7999 21.64C85.7999 20.01 85.5898 19.63 84.3898 19.63H83.9099L83.8998 19.64ZM83.8998 17.94H84.3699C85.4599 17.94 85.8598 17.53 85.8598 16.07V15.61C85.8598 14.58 85.6499 13.95 84.4799 13.95H83.8998V17.94Z" fill="white"></path><path d="M91.738 12.24V22.42C91.738 23.4 92.058 23.95 92.858 23.95C93.658 23.95 93.938 23.33 93.938 22.42V12.24H96.008V22.38C96.008 24.49 95.048 25.82 92.818 25.82C90.588 25.82 89.668 24.67 89.668 22.39V12.24H91.728H91.738Z" fill="white"></path><path d="M99.6286 21.69V22.52C99.6286 23.52 99.9286 24.07 100.709 24.07C101.489 24.07 101.719 23.31 101.719 22.44C101.719 21 101.409 20.56 99.9686 19.42C98.5286 18.28 97.7586 17.56 97.7586 15.58C97.7586 13.82 98.2886 12.04 100.709 12.04C103.179 12.04 103.559 13.8 103.559 15.26V15.97H101.509V15.31C101.509 14.38 101.349 13.81 100.669 13.81C99.9886 13.81 99.8186 14.39 99.8186 15.28C99.8186 16.23 99.9986 16.69 101.179 17.55C103.179 19.03 103.799 19.89 103.799 22.13C103.799 24.03 103.129 25.83 100.639 25.83C98.1486 25.83 97.5586 24.25 97.5586 22.49V21.7H99.6186L99.6286 21.69Z" fill="white"></path><path d="M106.837 14.16H104.688V12.24H111.057V14.16H108.897V25.63H106.837V14.16Z" fill="white"></path><path d="M117.367 19.51H114.427V23.73H117.817L117.557 25.63H112.367V12.25H117.537V14.17H114.437V17.63H117.377V19.53L117.367 19.51Z" fill="white"></path><path d="M119.207 12.24H122.067C124.907 12.24 125.597 13.71 125.597 16.2V21.33C125.597 23.38 125.247 25.63 122.067 25.63H119.207V12.25V12.24ZM121.277 23.87H121.937C123.297 23.87 123.497 23 123.497 21.61V16.03C123.497 14.8 123.277 14.01 121.917 14.01H121.267V23.86L121.277 23.87Z" fill="white"></path><path d="M76.8473 42.08L76.3773 45.66H74.2773L76.4373 32.28H79.3573L81.5973 45.66H79.4373L78.9073 42.08H76.8473ZM78.6673 40.18C78.3573 37.91 78.0673 35.75 77.9173 34.24H77.8373C77.7773 35.34 77.3773 38.21 77.1073 40.18H78.6573H78.6673Z" fill="white"></path><path d="M90.1073 41.6501V42.1701C90.1073 43.7001 89.8573 45.8501 87.0273 45.8501C84.5473 45.8501 84.0273 44.3001 84.0273 42.2601V35.5101C84.0273 33.4501 84.9673 32.0801 87.0673 32.0801C89.5773 32.0801 90.0573 33.7401 90.0573 35.6001V36.2001H87.9873V35.3601C87.9873 34.4701 87.7773 33.9601 87.0573 33.9601C86.3373 33.9601 86.1273 34.4501 86.1273 35.3601V42.4401C86.1273 43.3101 86.2973 43.9901 87.0873 43.9901C87.8773 43.9901 88.0273 43.4001 88.0273 42.4001V41.6501H90.1173H90.1073Z" fill="white"></path><path d="M94.9389 39.67V45.65H92.8789V32.27H95.7389C97.7789 32.27 98.9789 33.09 98.9789 35.5V36.01C98.9789 38.07 98.1389 38.59 97.6189 38.8C98.3989 39.17 98.8489 39.73 98.8489 41.55C98.8489 42.68 98.8289 44.85 98.9689 45.66H96.9789C96.7989 44.85 96.8389 42.65 96.8389 41.68C96.8389 40.05 96.6289 39.67 95.4289 39.67H94.9489H94.9389ZM94.9389 37.97H95.4089C96.4989 37.97 96.8989 37.56 96.8989 36.1V35.64C96.8989 34.61 96.6889 33.98 95.5189 33.98H94.9389V37.97Z" fill="white"></path><path d="M108.29 35.8201V42.0701C108.29 44.6301 107.2 45.8501 104.93 45.8501C102.66 45.8501 101.77 44.6101 101.77 42.1101V35.8101C101.77 33.2501 103.06 32.0801 105.06 32.0801C107.06 32.0801 108.29 33.2501 108.29 35.8301V35.8201ZM103.88 35.6201V42.3501C103.88 43.4601 104.28 43.9801 105.03 43.9801C105.83 43.9801 106.19 43.4901 106.19 42.3201V35.6001C106.19 34.5401 105.86 33.9501 105.03 33.9501C104.29 33.9501 103.89 34.4801 103.89 35.6201H103.88Z" fill="white"></path><path d="M112.918 41.7201V42.5501C112.918 43.5501 113.218 44.1001 113.998 44.1001C114.778 44.1001 115.008 43.3401 115.008 42.4701C115.008 41.0301 114.698 40.5901 113.258 39.4501C111.818 38.3101 111.048 37.5901 111.048 35.6101C111.048 33.8501 111.578 32.0701 113.998 32.0701C116.468 32.0701 116.848 33.8301 116.848 35.2801V36.0001H114.798V35.3401C114.798 34.4101 114.638 33.8401 113.958 33.8401C113.278 33.8401 113.108 34.4201 113.108 35.3101C113.108 36.2601 113.288 36.7201 114.468 37.5801C116.468 39.0601 117.088 39.9201 117.088 42.1601C117.088 44.0601 116.418 45.8601 113.928 45.8601C111.438 45.8601 110.848 44.2801 110.848 42.5201V41.7301H112.908L112.918 41.7201Z" fill="white"></path><path d="M121.718 41.7201V42.5501C121.718 43.5501 122.018 44.1001 122.798 44.1001C123.578 44.1001 123.808 43.3401 123.808 42.4701C123.808 41.0301 123.498 40.5901 122.058 39.4501C120.618 38.3101 119.848 37.5901 119.848 35.6101C119.848 33.8501 120.378 32.0701 122.798 32.0701C125.268 32.0701 125.648 33.8301 125.648 35.2801V36.0001H123.598V35.3401C123.598 34.4101 123.438 33.8401 122.758 33.8401C122.078 33.8401 121.908 34.4201 121.908 35.3101C121.908 36.2601 122.088 36.7201 123.268 37.5801C125.268 39.0601 125.888 39.9201 125.888 42.1601C125.888 44.0601 125.218 45.8601 122.728 45.8601C120.238 45.8601 119.648 44.2801 119.648 42.5201V41.7301H121.708L121.718 41.7201Z" fill="white"></path><path d="M80.0391 59.5701H77.0991V63.7901H80.4891L80.2291 65.6901H75.0391V52.3101H80.2091V54.2301H77.1091V57.6901H80.0491V59.5901L80.0391 59.5701Z" fill="white"></path><path d="M85.2084 52.3V62.48C85.2084 63.46 85.5284 64.0101 86.3284 64.0101C87.1284 64.0101 87.4084 63.39 87.4084 62.48V52.3H89.4784V62.44C89.4784 64.55 88.5284 65.88 86.2884 65.88C84.0484 65.88 83.1484 64.7301 83.1484 62.4501V52.3H85.2084Z" fill="white"></path><path d="M94.9389 59.7001V65.68H92.8789V52.3H95.7389C97.7789 52.3 98.9789 53.12 98.9789 55.53V56.0401C98.9789 58.1001 98.1389 58.6201 97.6189 58.8301C98.3989 59.2001 98.8489 59.76 98.8489 61.57C98.8489 62.7 98.8289 64.87 98.9689 65.68H96.9789C96.7989 64.87 96.8389 62.6701 96.8389 61.7001C96.8389 60.0701 96.6289 59.69 95.4289 59.69H94.9489L94.9389 59.7001ZM94.9389 58H95.4089C96.4989 58 96.8989 57.5901 96.8989 56.1301V55.67C96.8989 54.64 96.6889 54.01 95.5189 54.01H94.9389V58Z" fill="white"></path><path d="M108.389 55.8501V62.1001C108.389 64.6601 107.299 65.8801 105.029 65.8801C102.759 65.8801 101.879 64.6401 101.879 62.1401V55.8401C101.879 53.2801 103.169 52.1101 105.169 52.1101C107.169 52.1101 108.389 53.2801 108.389 55.8601V55.8501ZM103.979 55.6501V62.3801C103.979 63.4901 104.379 64.0101 105.129 64.0101C105.929 64.0101 106.289 63.5201 106.289 62.3501V55.6301C106.289 54.5701 105.959 53.9801 105.129 53.9801C104.389 53.9801 103.989 54.5101 103.989 55.6501H103.979Z" fill="white"></path><path d="M111.578 52.3H114.558C116.688 52.3 117.768 53.3501 117.768 55.7201V56.51C117.768 58.72 116.978 60.19 114.448 60.19H113.648V65.6901H111.588V52.3101L111.578 52.3ZM113.648 58.5H114.218C115.508 58.5 115.728 57.75 115.728 56.44V55.78C115.728 54.81 115.548 54.01 114.408 54.01H113.658V58.5H113.648Z" fill="white"></path><path d="M125.617 59.5701H122.677V63.7901H126.067L125.807 65.6901H120.617V52.3101H125.787V54.2301H122.687V57.6901H125.627V59.5901L125.617 59.5701Z" fill="white"></path><path d="M39.5725 11.01L40.5225 13.92H43.5925L41.1125 15.73L42.0525 18.64L39.5725 16.84L37.0925 18.64L38.0425 15.73L35.5625 13.92H38.6225L39.5725 11.01Z" fill="#F7D020"></path><path d="M39.5725 59.4299L40.5225 62.3399H43.5925L41.1125 64.1499L42.0525 67.0599L39.5725 65.2599L37.0925 67.0599L38.0425 64.1499L35.5625 62.3399H38.6225L39.5725 59.4299Z" fill="#F7D020"></path><path d="M51.5413 14.4099L52.4913 17.3199H55.5613L53.0813 19.1299L54.0213 22.0399L51.5413 20.2399L49.0613 22.0399L50.0112 19.1299L47.5312 17.3199H50.5913L51.5413 14.4099Z" fill="#F7D020"></path><path d="M27.4731 14.4099L28.4131 17.3199H31.4831L29.0031 19.1299L29.9531 22.0399L27.4731 20.2399L24.9831 22.0399L25.9331 19.1299L23.4531 17.3199H26.5231L27.4731 14.4099Z" fill="#F7D020"></path><path d="M52.3928 55.6101L53.3428 58.5201H56.4128L53.9328 60.3301L54.8828 63.2401L52.3928 61.4401L49.9128 63.2401L50.8628 60.3301L48.3828 58.5201H51.4528L52.3928 55.6101Z" fill="#F7D020"></path><path d="M26.6116 55.6101L27.5616 58.5201H30.6316L28.1516 60.3301L29.0916 63.2401L26.6116 61.4401L24.1316 63.2401L25.0816 60.3301L22.6016 58.5201H25.6716L26.6116 55.6101Z" fill="#F7D020"></path><path d="M18.7817 23.23L19.7317 26.15H22.7917L20.3117 27.95L21.2617 30.87L18.7817 29.06L16.3017 30.87L17.2417 27.95L14.7617 26.15H17.8317L18.7817 23.23Z" fill="#F7D020"></path><path d="M60.8325 23.23L61.7825 26.15H64.8425L62.3625 27.95L63.3125 30.87L60.8325 29.06L58.3525 30.87L59.2925 27.95L56.8125 26.15H59.8825L60.8325 23.23Z" fill="#F7D020"></path><path d="M18.7817 46.78L19.7317 49.7H22.7917L20.3117 51.5L21.2617 54.42L18.7817 52.62L16.3017 54.42L17.2417 51.5L14.7617 49.7H17.8317L18.7817 46.78Z" fill="#F7D020"></path><path d="M60.8325 46.78L61.7825 49.7H64.8425L62.3625 51.5L63.3125 54.42L60.8325 52.62L58.3525 54.42L59.2925 51.5L56.8125 49.7H59.8825L60.8325 46.78Z" fill="#F7D020"></path><path d="M63.4631 35.01L64.4131 37.92H67.4831L65.0031 39.73L65.9531 42.64L63.4631 40.84L60.9831 42.64L61.9331 39.73L59.4531 37.92H62.5231L63.4631 35.01Z" fill="#F7D020"></path><path d="M15.4514 35.01L16.4014 37.92H19.4714L16.9914 39.73L17.9414 42.64L15.4514 40.84L12.9714 42.64L13.9214 39.73L11.4414 37.92H14.5114L15.4514 35.01Z" fill="#F7D020"></path></g><defs><clipPath id="clip0_77_345"><rect width="136.91" height="78.98" fill="white"></rect></clipPath></defs></svg> 