<svg xmlns="http://www.w3.org/2000/svg" viewBox="0 0 640 480">
  <rect width="640" height="480" fill="#de2910"/>
  <g fill="#ffde00">
    <path d="M128 72l18.8 57.8h60.8l-49.2 35.8 18.8 57.8L128 187.6 78.8 223.4l18.8-57.8-49.2-35.8h60.8z"/>
    <path d="M234 57l7.4 22.8h24l-19.4 14.1 7.4 22.8-19.4-14.1-19.4 14.1 7.4-22.8-19.4-14.1h24z"/>
    <path d="M280 104l7.4 22.8h24l-19.4 14.1 7.4 22.8-19.4-14.1-19.4 14.1 7.4-22.8-19.4-14.1h24z"/>
    <path d="M280 170l7.4 22.8h24l-19.4 14.1 7.4 22.8-19.4-14.1-19.4 14.1 7.4-22.8-19.4-14.1h24z"/>
    <path d="M234 218l7.4 22.8h24l-19.4 14.1 7.4 22.8-19.4-14.1-19.4 14.1 7.4-22.8-19.4-14.1h24z"/>
  </g>
</svg>
