<svg xmlns="http://www.w3.org/2000/svg" viewBox="0 0 810 540">
  <rect width="810" height="540" fill="#003399"/>
  <g fill="#ffcc00" transform="translate(405 270)">
    <g id="star">
      <path d="M0-24 5.389-7.416H22.825L8.718 2.833 14.107 19.416 0 9.167-14.107 19.416-8.718 2.833-22.825-7.416H-5.389Z"/>
    </g>
    <use href="#star" transform="rotate(30) translate(0 -170) rotate(-30)"/>
    <use href="#star" transform="rotate(60) translate(0 -170) rotate(-60)"/>
    <use href="#star" transform="rotate(90) translate(0 -170) rotate(-90)"/>
    <use href="#star" transform="rotate(120) translate(0 -170) rotate(-120)"/>
    <use href="#star" transform="rotate(150) translate(0 -170) rotate(-150)"/>
    <use href="#star" transform="rotate(180) translate(0 -170) rotate(-180)"/>
    <use href="#star" transform="rotate(210) translate(0 -170) rotate(-210)"/>
    <use href="#star" transform="rotate(240) translate(0 -170) rotate(-240)"/>
    <use href="#star" transform="rotate(270) translate(0 -170) rotate(-270)"/>
    <use href="#star" transform="rotate(300) translate(0 -170) rotate(-300)"/>
    <use href="#star" transform="rotate(330) translate(0 -170) rotate(-330)"/>
    <use href="#star" transform="translate(0 -170)"/>
  </g>
</svg>
