<svg xmlns="http://www.w3.org/2000/svg" viewBox="0 0 640 480">
  <rect width="640" height="480" fill="#fff"/>
  <g transform="translate(320 240)">
    <path d="M0-96A96 96 0 0 1 0 96A48 48 0 0 0 0 0A48 48 0 0 1 0-96" fill="#c60c30"/>
    <path d="M0 96A96 96 0 0 1 0-96A48 48 0 0 0 0 0A48 48 0 0 1 0 96" fill="#003478"/>
  </g>
  <g fill="#000" transform="translate(160 120) rotate(-33)">
    <rect x="-56" y="-32" width="112" height="12" rx="4"/>
    <rect x="-56" y="-10" width="112" height="12" rx="4"/>
    <rect x="-56" y="12" width="112" height="12" rx="4"/>
  </g>
  <g fill="#000" transform="translate(480 360) rotate(-33)">
    <rect x="-56" y="-32" width="112" height="12" rx="4"/>
    <rect x="-56" y="-10" width="112" height="12" rx="4"/>
    <rect x="-56" y="12" width="112" height="12" rx="4"/>
  </g>
  <g fill="#000" transform="translate(480 120) rotate(33)">
    <rect x="-56" y="-32" width="112" height="12" rx="4"/>
    <rect x="-56" y="12" width="112" height="12" rx="4"/>
    <rect x="-56" y="-10" width="44" height="12" rx="4"/>
    <rect x="12" y="-10" width="44" height="12" rx="4"/>
  </g>
  <g fill="#000" transform="translate(160 360) rotate(33)">
    <rect x="-56" y="-32" width="44" height="12" rx="4"/>
    <rect x="12" y="-32" width="44" height="12" rx="4"/>
    <rect x="-56" y="12" width="44" height="12" rx="4"/>
    <rect x="12" y="12" width="44" height="12" rx="4"/>
    <rect x="-56" y="-10" width="112" height="12" rx="4"/>
  </g>
</svg>
