<?xml version="1.0" encoding="UTF-8"?>
<svg xmlns="http://www.w3.org/2000/svg" width="100" height="100" viewBox="0 0 100 100">
  <path id="5" d="M 25.639,58 C 28.667,51.125 32.971,41.316 35.203,36.201 C 36.556,33.101 37.908,30.001 39.261,26.901 C 40.784,27.001 42.308,27.101 43.831,27.201 C 45.354,27.301 46.879,27.400 48.402,27.500 C 49.668,30.481 50.935,33.463 52.201,36.444 C 54.291,41.363 56,45.751 56,46.194 C 56,46.637 53.981,47 51.513,47 C 47.285,47 46.933,46.784 45.396,43.250 C 44.852,42 44.309,40.750 43.765,39.500 C 42.991,41.167 42.218,42.833 41.444,44.500 C 40.167,47.250 39.095,49.838 39.061,50.250 C 39.027,50.662 46.869,51 56.487,51 C 62.316,51 68.144,51 73.973,51 C 74.477,52.207 74.983,53.415 75.487,54.622 C 76.319,56.614 77,58.639 77,59.122 C 77,59.605 67.516,60 55.925,60 C 48.900,60 41.875,60 34.850,60 C 33.987,62 33.124,64 32.261,66 C 31.398,68 30.536,70 29.673,72 C 28.061,72 26.448,72 24.836,72 C 22.176,72 20.030,71.662 20.067,71.250 C 20.104,70.838 22.611,64.875 25.639,58 Z" fill="#000000" stroke="none" />
  <path id="5" d="M 58.803,27 C 60.404,27 62.006,27 63.607,27 C 64.657,29.583 65.707,32.167 66.757,34.750 C 68.490,39.013 70.202,43.287 70.561,44.250 C 71.128,45.767 70.563,46 66.317,46 C 64.685,46 63.052,46 61.420,46 C 60.183,43.079 58.947,40.159 57.710,37.238 C 55.669,32.419 54,28.144 54,27.738 C 54,27.332 56.161,27 58.803,27 Z" fill="#000000" stroke="none" />
  <path id="5" d="M 58.902,63 C 63.342,63 63.898,63.259 64.800,65.750 C 65.348,67.262 66.115,69.287 66.505,70.250 C 67.124,71.778 66.580,72 62.216,72 C 57.314,72 57.187,71.923 55.609,67.980 C 54.724,65.769 54,63.744 54,63.480 C 54,63.216 56.206,63 58.902,63 Z" fill="#000000" stroke="none" />
  <path id="5" d="M 73.815,63 C 78.342,63 78.731,63.211 80.315,66.534 C 82.724,71.586 82.512,72 77.520,72 C 73.308,72 72.920,71.764 71.020,68.040 C 69.909,65.862 69,63.837 69,63.540 C 69,63.243 71.167,63 73.815,63 Z" fill="#000000" stroke="none" />
</svg>